<svg width="38" height="38" viewBox="0 0 38 38" fill="none" xmlns="http://www.w3.org/2000/svg">
<path d="M11.6953 37.1765C25.7208 37.1765 33.3942 22.8722 33.3942 10.4712C33.3942 10.0691 33.3869 9.65799 33.3723 9.25585C34.8651 7.92727 36.1533 6.28164 37.1765 4.39627C35.7862 5.1575 34.3102 5.65467 32.7989 5.87077C34.3902 4.69674 35.5818 2.85239 36.1527 0.679633C34.6556 1.77162 33.0182 2.54192 31.311 2.95751C30.1608 1.45325 28.6398 0.457249 26.9835 0.123503C25.327 -0.210243 23.6274 0.136851 22.1475 1.11111C20.6675 2.0854 19.4895 3.63256 18.7956 5.51345C18.1017 7.39433 17.9305 9.50415 18.3086 11.5167C15.2772 11.3295 12.3115 10.3603 9.60389 8.67199C6.89628 6.98364 4.50718 4.61386 2.59146 1.71626C1.61779 3.78229 1.31985 6.22709 1.75819 8.55376C2.19652 10.8805 3.33824 12.9144 4.95129 14.2423C3.74031 14.195 2.55585 13.7937 1.49577 13.0717V13.1878C1.49469 15.356 2.10372 17.4577 3.21934 19.1357C4.33497 20.8136 5.88832 21.9644 7.61537 22.3923C6.49358 22.7699 5.3162 22.825 4.17437 22.5531C4.6617 24.4177 5.60988 26.0485 6.88659 27.218C8.16329 28.3875 9.70479 29.0372 11.296 29.0766C8.59462 31.6882 5.25764 33.1048 1.82252 33.098C1.21333 33.0968 0.604735 33.0508 0 32.9603C3.48972 35.7157 7.5492 37.1793 11.6953 37.1765Z" fill="#555555"/>
</svg>
