<svg width="38" height="38" viewBox="0 0 38 38" fill="none" xmlns="http://www.w3.org/2000/svg">
<path d="M33.3672 7.95072C33.0777 7.82104 32.7958 7.67887 32.5227 7.52476C31.7286 7.06973 31.0004 6.53356 30.354 5.9278C28.7366 4.32387 28.1326 2.69671 27.9101 1.55746H27.919C27.7332 0.611832 27.81 0 27.8216 0H20.455V24.6886C20.455 25.0201 20.455 25.3477 20.4389 25.6714C20.4389 25.7117 20.4344 25.7488 20.4317 25.7922C20.4317 25.81 20.4317 25.8286 20.4273 25.8472C20.4273 25.8518 20.4273 25.8565 20.4273 25.8611C20.3496 26.747 20.022 27.6027 19.4732 28.353C18.9244 29.1033 18.1713 29.7253 17.2801 30.1641C16.3513 30.6221 15.3007 30.8623 14.2321 30.8611C10.7999 30.8611 8.01817 28.4355 8.01817 25.4398C8.01817 22.4442 10.7999 20.0185 14.2321 20.0185C14.8818 20.018 15.5275 20.1066 16.1453 20.2811L16.1542 13.7802C14.2789 13.5702 12.3738 13.6994 10.5589 14.1595C8.74413 14.6197 7.05905 15.4008 5.60998 16.4536C4.34027 17.4098 3.27282 18.5507 2.45566 19.8249C2.14469 20.2896 0.971427 22.1568 0.829348 25.1874C0.739991 26.9075 1.33601 28.6895 1.62016 29.426V29.4415C1.79888 29.8752 2.4914 31.3552 3.61999 32.6029C4.53004 33.6037 5.60524 34.4829 6.81095 35.2121V35.1966L6.82882 35.2121C10.3951 37.3125 14.3492 37.1746 14.3492 37.1746C15.0336 37.1506 17.3266 37.1746 19.9304 36.1051C22.8185 34.9194 24.4627 33.1528 24.4627 33.1528C25.5131 32.0972 26.3483 30.8943 26.9325 29.5956C27.5991 28.0769 27.8216 26.2553 27.8216 25.5273V12.4295C27.911 12.476 29.1012 13.1583 29.1012 13.1583C29.1012 13.1583 30.816 14.1109 33.4914 14.7312C35.4108 15.1727 37.9968 15.2656 37.9968 15.2656V8.92733C37.0907 9.01252 35.2508 8.76469 33.3672 7.95072Z" fill="#555555"/>
</svg>
