<svg width="38" height="38" viewBox="0 0 38 38" fill="none" xmlns="http://www.w3.org/2000/svg">
<path d="M19.2085 3.34799C24.178 3.34799 24.7665 3.36977 26.7209 3.45691C28.5371 3.5368 29.518 3.84184 30.1717 4.09603C31.0364 4.43009 31.6612 4.83678 32.3078 5.48315C32.9616 6.13676 33.3613 6.75407 33.6955 7.61831C33.9498 8.27193 34.2548 9.25962 34.3348 11.068C34.422 13.0288 34.4438 13.6171 34.4438 18.5773C34.4438 23.5449 34.422 24.1332 34.3348 26.0868C34.2548 27.9023 33.9498 28.8828 33.6955 29.5363C33.3613 30.4007 32.9544 31.0252 32.3078 31.6716C31.6539 32.3251 31.0364 32.7247 30.1717 33.0587C29.518 33.3129 28.5298 33.6178 26.7209 33.6978C24.7592 33.7849 24.1707 33.8067 19.2085 33.8067C14.239 33.8067 13.6506 33.7849 11.6962 33.6978C9.87988 33.6178 8.89906 33.3129 8.24519 33.0587C7.38063 32.7247 6.75581 32.3179 6.10919 31.6716C5.45532 31.0179 5.05574 30.4007 4.72153 29.5363C4.46724 28.8828 4.1621 27.895 4.08218 26.0868C3.99499 24.1259 3.97319 23.5377 3.97319 18.5773C3.97319 13.6098 3.99499 13.0216 4.08218 11.068C4.1621 9.25235 4.46724 8.27193 4.72153 7.61831C5.05574 6.75407 5.46259 6.12951 6.10919 5.48315C6.76306 4.82953 7.38063 4.43009 8.24519 4.09603C8.89906 3.84184 9.88713 3.5368 11.6962 3.45691C13.6506 3.36977 14.239 3.34799 19.2085 3.34799ZM19.2085 0C14.1591 0 13.527 0.0217872 11.5436 0.108937C9.56747 0.196087 8.20886 0.515634 7.03189 0.973167C5.80405 1.45249 4.76512 2.08432 3.73345 3.12286C2.6945 4.15413 2.06243 5.19265 1.58292 6.41274C1.12521 7.59652 0.805538 8.94733 0.718354 10.9227C0.631171 12.9126 0.609375 13.5445 0.609375 18.5919C0.609375 23.6392 0.631171 24.2711 0.718354 26.2538C0.805538 28.2291 1.12521 29.5873 1.58292 30.7638C2.06243 31.991 2.6945 33.0296 3.73345 34.0608C4.76512 35.0921 5.80405 35.7313 7.02462 36.2034C8.20886 36.6609 9.5602 36.9803 11.5364 37.0675C13.5198 37.1547 14.1519 37.1765 19.2012 37.1765C24.2505 37.1765 24.8827 37.1547 26.8661 37.0675C28.8423 36.9803 30.2009 36.6609 31.3779 36.2034C32.5984 35.7313 33.6373 35.0921 34.669 34.0608C35.7007 33.0296 36.34 31.991 36.8122 30.771C37.2699 29.5873 37.5896 28.2364 37.6769 26.261C37.7641 24.2784 37.7858 23.6466 37.7858 18.5991C37.7858 13.5517 37.7641 12.9199 37.6769 10.9372C37.5896 8.96185 37.2699 7.60377 36.8122 6.42726C36.3546 5.19265 35.7225 4.15413 34.6835 3.12286C33.6518 2.09158 32.6129 1.45249 31.3924 0.980431C30.2082 0.522896 28.8568 0.203348 26.8806 0.116199C24.89 0.0217874 24.2578 0 19.2085 0Z" fill="#555555"/>
</svg>
